<?xml version="1.0" encoding="UTF-8" standalone="no"?>
<svg
   xmlns:dc="http://purl.org/dc/elements/1.1/"
   xmlns:cc="http://creativecommons.org/ns#"
   xmlns:rdf="http://www.w3.org/1999/02/22-rdf-syntax-ns#"
   xmlns:svg="http://www.w3.org/2000/svg"
   xmlns="http://www.w3.org/2000/svg"
   viewBox="0 0 539 600"
   height="600"
   width="539"
   version="1.1">
  <metadata
     id="metadata8">
    <rdf:RDF>
      <cc:Work
         rdf:about="">
        <dc:format>image/svg+xml</dc:format>
        <dc:type
           rdf:resource="http://purl.org/dc/dcmitype/StillImage" />
        <dc:title></dc:title>
      </cc:Work>
    </rdf:RDF>
  </metadata>
  <g style="fill:none;stroke:#2e6da4;stroke-width:16;stroke-linecap:butt;stroke-linejoin:miter;stroke-opacity:1">
    <path
       d="m 270.83398,107.27734 c -156.67235,0 -210.826776,156.76444 -128.76953,267.50977 33.33238,44.98574 42.99055,132.68859 56.64453,176.28125 5.29637,16.90955 36.60259,7.32031 72.125,7.32031 35.52241,0 66.82668,9.58924 72.12305,-7.32031 13.65398,-43.59266 23.31411,-131.29551 56.64649,-176.28125 82.05725,-110.74533 27.90281,-267.50977 -128.76954,-267.50977 z" />
    <path
       d="M 145.05556,493.05556 H 393.16667" />
    <path
       d="M 156.72222,523.38889 H 379.55556" />
    <path
       d="M 232.16667,341.77778 305.27778,197.11111" />
    <path
       d="m 209.22222,230.94444 -37.91666,37.91667 37.91666,37.91667" />
    <path
       id="path4543-5"
       d="m 326.65769,230.94481 37.91666,37.91667 -37.91666,37.91667" />
    <path
       d="M 129.5,408.27778 78.555556,459.22222" />
    <path
       d="m 407.94444,410.22222 50.36112,50.36111" />
    <path
       d="m 448.38889,346.05556 33.83333,14" />
    <path
       d="m 85.944444,342.94444 -31.5,15.16667" />
    <path
       d="M 75.056,267 H 0" />
    <path
       d="m 463.16667,267 h 76.22222" />
    <path
       d="m 449.94444,196.33333 34.61112,-15.55555" />
    <path
       d="m 90.222222,193.22222 -35.388889,-14" />
    <path
       d="M 133,130.61111 80.5,78.111111" />
    <path
       d="M 408.72222,133.33333 461.02778,81.027778" />
    <path
       d="M 344.94444,89.777778 359.72222,55.555556" />
    <path
       d="m 196.38889,87.444444 -14,-32.277777" />
    <path
       d="M 271.44444,74.611111 V -0.05555556" />
    <path
       d="m 309.08559,560.51402 a 45.305553,43.75 0 0 1 -43.41797,32.09645 45.305553,43.75 0 0 1 -43.78353,-31.62999" />
  </g>
</svg>